<svg xmlns="http://www.w3.org/2000/svg" width="160" height="80" viewBox="0 0 160 80">
  <rect width="160" height="80" fill="#F5C518"/>
  <path d="M35.5 14h9v52h-9z"/>
  <path d="M58.5 66h-9V14h9v16.5c2.5-3.5 5.5-5 9-5 3.5 0 6.5 1.5 8 4 2 2.5 2.5 6 2.5 11v25.5h-9V43c0-3.5 0-6.5-1-8-1-1.5-2.5-2.5-4.5-2.5s-3.5 1-4.5 2.5c-1 1.5-1 4.5-1 8V66h.5z"/>
  <path d="M85.5 48.5v-3c0-4 0-7 1-9.5s1.5-4 3-5.5c1.5-1.5 3.5-2.5 5.5-3 2-.5 4.5-1 7.5-1h5v6.5h-5.5c-2 0-3.5.5-4.5 1-1 .5-2 1-2.5 2-.5.5-.5 1.5-1 2.5v2h11l-1.5 7h-9v19h-9v-19h-4.5v-7h4.5v7.5z"/>
  <path d="M125.5 31h9v35h-9V31zm0-12h9v8h-9v-8z"/>
</svg>