<svg xmlns="http://www.w3.org/2000/svg" width="80" height="80" viewBox="0 0 80 80">
  <rect width="80" height="80" rx="4" fill="#001C24"/>
  <path d="M31.429 60H20V20h11.429v40zm29.142-40h-11.428v40h11.428V20z" fill="#FFC000"/>
  <path d="M60.571 40c0-6.32-5.122-11.429-11.429-11.429V20C57.958 20 66 28.04 66 40s-8.042 20-16.858 20V48.57c6.307 0 11.429-5.109 11.429-11.429v1.908.952z" fill="#66CC33"/>
  <path d="M20 40c0 6.32 5.123 11.429 11.429 11.429V60C22.042 60 14 51.96 14 40s8.042-20 17.429-20v11.429C25.123 31.429 20 36.538 20 43.81v-3.81z" fill="#FD0203"/>
</svg>