<svg xmlns="http://www.w3.org/2000/svg" width="120" height="80" viewBox="0 0 120 80">
  <rect width="120" height="80" rx="4" fill="#032541"/>
  <path d="M19.807 56.9c.392.435.871.772 1.438 1.012.566.24 1.183.36 1.85.36.676 0 1.328-.128 1.959-.383.63-.254 1.208-.629 1.733-1.124l12.048-11.376v-5.51H19.807V56.9zm0-16.72h24.828v-5.8H19.807v5.8zm29.23 18.076h5.493V34.38h-5.492v23.876zm19.034-21.077a3.08 3.08 0 0 0 2.26.952c.885 0 1.64-.317 2.26-.952a3.08 3.08 0 0 0 .928-2.259c0-.886-.31-1.64-.929-2.259a3.08 3.08 0 0 0-2.259-.952c-.886 0-1.64.316-2.26.952a3.08 3.08 0 0 0-.928 2.259c0 .885.309 1.639.928 2.259zm-2.746 21.077h5.492V34.38h-5.492v23.876zm24.84-24.424c-1.302 0-2.467.23-3.496.691a7.543 7.543 0 0 0-2.698 1.985v-2.205h-5.492v23.874h5.492V42.46c0-1.392.393-2.45 1.18-3.172.786-.723 1.894-1.084 3.324-1.084 1.234 0 2.165.327 2.795.982.63.656.944 1.566.944 2.728v17.343h5.492v-18.29c0-2.36-.67-4.154-2.006-5.385-1.337-1.23-3.241-1.847-5.712-1.847zm19.035 24.971c1.354 0 2.588-.189 3.7-.568a8.689 8.689 0 0 0 2.929-1.67c.818-.74 1.45-1.65 1.894-2.729a9.428 9.428 0 0 0 .666-3.602c0-1.338-.226-2.519-.68-3.54a7.733 7.733 0 0 0-1.895-2.636 8.665 8.665 0 0 0-2.882-1.67c-1.112-.383-2.328-.575-3.648-.575-1.303 0-2.503.201-3.603.606a8.193 8.193 0 0 0-2.882 1.762c-.818.765-1.458 1.692-1.924 2.783-.465 1.09-.697 2.32-.697 3.693v.246c0 1.285.216 2.442.65 3.47.433 1.028 1.042 1.9 1.825 2.62a8.267 8.267 0 0 0 2.836 1.67c1.095.386 2.305.58 3.632.58h.079zm-.143-4.925c-1.269 0-2.31-.396-3.123-1.19-.814-.792-1.22-1.777-1.22-2.952 0-1.321.41-2.387 1.228-3.201.819-.814 1.85-1.221 3.1-1.221 1.269 0 2.305.407 3.108 1.221.803.814 1.204 1.88 1.204 3.2 0 1.176-.406 2.16-1.22 2.953-.813.794-1.844 1.19-3.093 1.19h.016z" fill="#01B4E4"/>
</svg>